<?xml version="1.0" standalone="no"?>
<!DOCTYPE svg PUBLIC "-//W3C//DTD SVG 20010904//EN"
 "http://www.w3.org/TR/2001/REC-SVG-20010904/DTD/svg10.dtd">
<svg version="1.0" xmlns="http://www.w3.org/2000/svg"
 width="310.000000pt" height="310.000000pt" viewBox="0 0 310.000000 310.000000"
 preserveAspectRatio="xMidYMid meet">
<metadata>
Created by potrace 1.11, written by Peter Selinger 2001-2013
</metadata>
<g transform="translate(0.000000,310.000000) scale(0.100000,-0.100000)"
fill="#000000" stroke="none">
<path d="M1137 2664 c-4 -4 -1 -14 6 -23 10 -14 10 -14 -3 -5 -23 17 -79 23
-73 8 3 -9 -2 -12 -18 -9 -13 3 -28 -2 -36 -13 -14 -16 -14 -16 -8 2 6 20 6
20 -16 0 -12 -10 -19 -13 -14 -5 5 9 -1 7 -19 -4 -14 -10 -26 -14 -26 -10 0 4
-6 2 -14 -4 -7 -6 -22 -9 -32 -5 -16 5 -16 4 -4 -5 12 -9 11 -11 -8 -11 -13 0
-20 -4 -17 -10 4 -6 11 -7 17 -4 6 4 8 2 5 -4 -7 -11 -57 6 -57 20 0 4 -6 5
-14 2 -8 -3 -17 0 -21 5 -3 6 -11 9 -16 6 -5 -4 -9 -2 -9 2 0 5 -9 9 -20 9
-11 0 -20 -4 -20 -9 0 -5 -6 -4 -14 2 -10 8 -16 9 -21 1 -3 -6 -11 -8 -16 -5
-5 4 -9 2 -9 -4 0 -5 -9 -8 -20 -6 -11 2 -20 0 -20 -6 0 -5 -7 -9 -15 -9 -8 0
-15 -5 -15 -11 0 -5 -4 -7 -10 -4 -9 6 -14 -8 -11 -28 1 -5 -3 -6 -8 -3 -13 8
-42 -4 -35 -15 3 -5 -2 -9 -10 -9 -9 0 -15 -3 -15 -7 3 -19 -2 -34 -9 -29 -4
2 -15 -9 -25 -25 -10 -18 -12 -27 -4 -24 6 4 2 -2 -10 -13 -23 -20 -32 -39
-13 -27 13 8 0 -28 -14 -37 -7 -5 -7 -8 2 -8 6 0 12 -5 12 -11 0 -5 -4 -8 -9
-4 -6 3 -6 -6 -1 -24 4 -16 6 -32 2 -35 -3 -3 -1 -6 5 -6 5 0 10 -7 11 -15 1
-8 3 -22 4 -30 1 -8 5 -15 10 -15 5 0 7 -4 3 -9 -3 -5 -1 -12 4 -15 14 -9 -18
-67 -32 -60 -7 3 -1 -5 13 -17 17 -15 19 -20 8 -16 -17 6 -22 -2 -19 -30 1 -7
-6 -13 -16 -13 -15 0 -16 -2 -3 -10 8 -5 11 -10 6 -10 -5 0 -3 -6 3 -14 9 -10
8 -16 -3 -25 -9 -8 -13 -25 -11 -47 2 -25 -1 -34 -12 -34 -8 0 -11 -5 -8 -10
4 -6 9 -8 13 -6 4 2 7 -7 7 -20 0 -13 -4 -24 -10 -24 -5 0 -3 -5 5 -10 8 -5
10 -10 3 -10 -15 0 -5 -39 16 -65 15 -18 15 -19 -1 -6 -11 8 -18 9 -18 3 0 -6
5 -14 10 -17 8 -5 7 -11 -1 -21 -7 -8 -7 -14 -1 -14 5 0 13 -7 16 -16 5 -13 2
-15 -14 -11 -11 3 -18 1 -14 -4 3 -5 14 -9 25 -9 10 0 19 -5 19 -11 0 -5 -5
-7 -11 -3 -6 3 -3 -8 6 -26 13 -25 14 -34 4 -46 -10 -12 -9 -13 6 -7 14 5 17
3 12 -10 -3 -9 -2 -17 3 -17 6 0 9 -3 9 -7 -3 -19 2 -33 12 -33 5 0 7 5 3 12
-5 7 -3 8 5 3 9 -5 7 -13 -9 -30 -14 -15 -18 -25 -11 -30 7 -4 10 -1 9 7 -2 7
4 13 12 13 9 0 14 -7 12 -17 -2 -10 2 -18 8 -18 5 0 10 -9 10 -19 0 -11 6 -21
13 -24 14 -5 16 -59 2 -69 -6 -5 -4 -8 4 -8 11 0 10 -4 -5 -16 -10 -8 -13 -13
-6 -9 8 4 12 -2 13 -19 2 -42 3 -44 21 -65 9 -11 14 -21 12 -24 -3 -3 8 -8 23
-12 15 -3 35 -13 44 -21 13 -12 18 -12 35 2 10 8 13 12 5 8 -9 -4 -12 -3 -7 4
9 14 38 3 30 -12 -3 -6 4 0 15 13 12 13 21 18 21 12 0 -7 5 -9 10 -6 6 3 10 2
10 -4 0 -15 -18 -23 -22 -9 -3 7 -7 5 -11 -6 -4 -10 -3 -15 3 -11 6 3 10 0 10
-7 0 -8 5 -6 11 5 11 19 49 24 49 6 0 -6 -7 -9 -15 -6 -8 4 -17 2 -20 -3 -5
-9 29 -7 55 4 21 8 69 -33 51 -43 -10 -6 -9 -10 3 -14 9 -4 15 -3 15 1 -4 25
1 32 15 20 10 -10 11 -15 2 -21 -7 -6 -4 -7 7 -3 10 3 21 6 23 6 3 0 2 5 -2
11 -4 8 0 8 15 0 23 -13 44 -45 34 -55 -3 -3 -2 -6 4 -6 6 0 14 7 17 16 3 8 2
12 -4 9 -6 -3 -10 -1 -10 5 0 7 8 9 21 5 16 -6 20 -4 14 6 -6 11 -5 12 5 2 12
-11 11 -16 -6 -29 -18 -15 -18 -15 3 -5 30 15 66 14 57 -1 -5 -7 -3 -8 7 -3
27 17 68 12 75 -8 5 -14 8 -16 14 -7 6 10 12 10 29 -2 11 -8 19 -17 16 -20 -3
-2 2 -5 12 -5 12 0 9 6 -10 22 -30 24 -34 32 -12 32 8 0 12 -5 8 -10 -3 -5 3
-6 16 -2 17 5 20 3 15 -12 -3 -10 1 -8 9 6 11 19 15 20 20 8 3 -9 1 -17 -6
-20 -6 -2 -4 -6 5 -10 13 -4 16 -1 12 18 -3 17 0 23 13 21 9 -2 20 -11 25 -22
6 -15 7 -13 3 7 -3 17 0 26 9 26 8 0 13 -9 11 -22 -1 -12 4 -22 11 -22 7 0 11
4 8 9 -11 17 -11 59 -1 65 6 3 7 1 3 -5 -3 -6 -2 -13 3 -17 6 -3 8 -13 5 -23
-5 -14 -4 -14 4 -2 6 8 8 18 5 23 -3 6 9 8 29 5 26 -3 34 0 31 9 -3 7 -10 10
-16 6 -6 -4 -7 -1 -2 6 5 9 10 10 18 2 7 -7 14 -5 24 7 13 15 13 15 7 -7 -4
-16 -3 -21 5 -17 6 4 11 14 11 23 0 10 6 14 20 10 21 -5 28 7 10 18 -13 8 -13
25 0 25 5 0 9 -6 7 -12 -1 -7 3 -12 10 -11 6 1 10 -5 8 -15 -2 -9 -4 -21 -4
-25 -1 -4 -11 -2 -23 4 -17 8 -20 8 -12 0 6 -6 20 -13 32 -16 16 -3 19 0 15
12 -5 12 -3 14 8 8 11 -6 11 -5 2 5 -14 16 -6 40 14 40 13 0 13 2 2 18 -13 15
-12 16 3 4 10 -8 17 -9 20 -2 1 5 9 1 15 -9 8 -13 9 -22 3 -26 -6 -3 -10 2
-10 12 0 15 -2 16 -10 3 -16 -26 19 -36 37 -11 8 12 19 19 24 16 5 -4 9 -1 9
4 0 14 -13 14 -27 0 -7 -7 -12 -6 -16 3 -3 9 4 15 21 16 14 1 32 8 41 15 14
10 14 10 3 -4 -7 -9 -12 -21 -11 -25 4 -23 -2 -33 -18 -28 -15 5 -16 4 -3 -5
17 -12 30 -2 35 25 2 11 4 21 4 23 1 2 9 -3 20 -13 10 -9 25 -14 35 -10 12 4
16 0 16 -16 0 -18 4 -20 22 -14 21 6 22 5 8 -11 -14 -17 -14 -17 9 -6 19 11
25 11 32 0 5 -8 9 -17 9 -21 0 -5 9 -8 19 -8 11 0 23 -5 27 -12 5 -7 3 -8 -6
-3 -9 5 -11 4 -6 -4 6 -9 12 -9 24 1 10 7 14 8 10 4 -5 -5 1 -15 12 -23 11 -8
20 -19 20 -25 0 -7 -7 -3 -16 8 -14 18 -15 18 -4 -4 9 -19 14 -21 32 -11 15 8
18 8 14 0 -4 -6 -2 -11 3 -11 6 0 11 -7 11 -16 0 -8 3 -13 8 -10 4 2 16 -2 27
-10 10 -8 15 -14 11 -14 -4 0 -1 -7 8 -15 8 -8 20 -15 26 -15 6 0 9 -4 5 -9
-7 -12 31 -25 46 -15 8 4 9 3 5 -4 -4 -7 -15 -12 -24 -12 -14 0 -15 -2 -2 -9
8 -6 19 -7 25 -3 5 3 4 -1 -2 -10 -15 -17 -7 -29 13 -21 17 6 19 -13 2 -21 -7
-3 -3 -3 10 0 24 6 31 -13 11 -33 -8 -8 -7 -13 2 -18 7 -5 10 -4 5 3 -13 21
18 17 41 -5 24 -24 33 -60 11 -47 -7 4 -8 3 -4 -5 6 -9 11 -9 24 1 13 11 15
10 10 -9 -4 -16 -2 -20 8 -16 8 3 14 0 14 -7 0 -6 7 -18 15 -26 11 -11 15 -12
15 -3 0 7 3 10 6 7 3 -4 1 -15 -5 -26 -9 -17 -8 -19 9 -15 15 4 20 0 20 -16 0
-12 5 -19 10 -16 6 3 10 1 10 -6 0 -6 10 -20 22 -31 19 -16 20 -21 8 -29 -11
-8 -10 -9 8 -4 20 6 27 -2 23 -27 0 -4 7 -7 17 -6 43 3 54 -2 49 -22 -3 -11
-1 -18 4 -14 5 3 9 13 10 22 0 11 3 12 6 5 2 -7 19 -13 37 -13 18 0 38 6 45
13 11 10 13 9 7 -3 -6 -12 -5 -12 6 1 7 9 19 14 26 12 6 -3 12 2 12 11 0 8 9
20 20 26 11 6 17 16 14 22 -5 8 -1 9 10 5 12 -5 15 -3 9 6 -11 18 -13 38 -2
31 5 -3 9 2 9 11 0 10 -5 13 -12 9 -9 -5 -9 -2 1 9 7 9 10 17 5 17 -5 0 -10
12 -11 27 0 14 -8 30 -16 35 -10 5 -13 16 -9 30 3 14 2 19 -6 14 -7 -4 -12 -2
-12 4 0 6 -5 8 -10 5 -6 -3 -10 1 -10 10 0 9 -9 19 -20 22 -11 3 -20 13 -21
22 0 12 -2 11 -9 -4 -5 -11 -9 -14 -9 -7 -1 14 -24 41 -38 45 -4 1 -7 5 -6 9
2 4 -4 5 -12 2 -8 -4 -15 -1 -15 5 0 6 -7 11 -16 11 -9 0 -12 5 -8 13 5 7 2 7
-10 -2 -14 -12 -17 -12 -14 -1 2 8 -7 19 -19 25 -13 5 -23 13 -23 17 0 5 -7 8
-15 8 -8 0 -15 5 -15 10 0 6 -5 10 -11 10 -5 0 -7 -4 -4 -10 3 -5 1 -10 -5
-10 -6 0 -10 6 -9 13 3 25 -1 38 -11 32 -5 -3 -10 0 -10 7 0 9 -3 9 -10 -2 -8
-13 -10 -13 -10 2 0 17 -32 41 -44 33 -3 -3 -4 -2 -1 1 5 8 -13 26 -47 43 -22
11 -25 17 -16 28 8 11 7 12 -6 7 -9 -3 -16 -1 -16 5 0 6 -6 11 -14 11 -8 0
-16 7 -20 15 -3 8 -13 15 -23 15 -14 0 -15 2 -4 9 11 7 9 10 -8 16 -11 3 -21
9 -21 13 0 17 -50 63 -60 57 -9 -6 -9 -2 0 14 6 12 9 27 6 34 -2 7 -5 4 -5 -6
-1 -10 -6 -15 -11 -12 -6 4 -8 11 -5 16 4 5 -2 9 -12 10 -16 0 -16 1 2 9 18 8
18 9 -5 10 -23 1 -23 2 -5 10 19 8 18 9 -4 9 -19 1 -21 4 -12 15 7 8 21 13 32
11 11 -2 17 0 14 5 -6 10 -23 8 -55 -9 l-25 -14 19 22 c11 11 16 24 13 28 -4
3 -7 2 -7 -4 0 -6 -8 -14 -17 -18 -14 -5 -15 -3 -6 6 6 6 9 18 6 25 -3 10 0
12 10 8 8 -3 18 -1 22 5 4 7 0 8 -11 4 -13 -5 -15 -3 -9 8 8 12 6 12 -8 1 -20
-17 -38 -7 -30 15 5 12 3 14 -8 8 -11 -6 -12 -5 -2 5 10 11 9 16 -5 27 -16 12
-16 13 2 6 11 -4 17 -2 13 3 -3 6 3 11 14 11 10 1 19 -3 19 -8 0 -6 -4 -8 -9
-4 -5 3 -12 1 -16 -4 -3 -6 3 -8 15 -6 11 2 20 -1 20 -7 0 -6 3 -9 6 -6 9 10
-16 48 -31 48 -8 0 -15 5 -15 10 0 6 6 10 14 10 8 0 18 -4 21 -10 3 -5 12 -10
18 -10 7 0 4 5 -6 11 -9 6 -14 15 -11 21 5 7 2 8 -6 3 -10 -6 -11 -4 -4 6 10
17 15 38 15 61 0 10 5 21 11 24 7 5 8 2 3 -6 -6 -9 -4 -11 5 -5 10 6 12 4 6
-11 -5 -14 -4 -16 4 -8 13 13 3 44 -15 44 -8 0 -16 4 -19 9 -4 5 2 7 13 4 10
-3 22 1 26 8 5 7 4 10 -3 6 -6 -5 -8 0 -5 13 5 19 6 20 20 3 13 -16 13 -16 3
5 -6 12 -16 22 -22 22 -6 0 -9 3 -5 6 3 4 14 3 24 -1 28 -12 42 -14 48 -5 2 4
-5 7 -18 6 -13 -1 -21 4 -19 12 1 8 -2 11 -8 7 -5 -3 -10 1 -10 11 0 14 -2 15
-17 3 -16 -13 -17 -12 -4 4 11 13 17 15 28 6 11 -10 12 -8 6 12 -11 31 -10 70
1 88 6 10 5 12 -2 7 -7 -4 -12 -1 -12 8 0 9 -5 16 -11 16 -6 0 -3 8 8 18 10 9
14 13 7 9 -7 -4 -15 -4 -18 2 -4 5 3 13 15 16 l21 7 -22 15 c-16 12 -19 18 -9
29 6 8 8 14 3 14 -4 0 -3 5 4 12 7 7 12 19 11 27 0 12 -3 10 -10 -4 -8 -18 -9
-18 -7 5 1 14 -4 36 -11 48 -7 13 -15 36 -17 50 -3 15 -9 29 -14 32 -5 3 -8
16 -5 29 3 18 1 20 -9 12 -13 -11 -14 -10 -17 44 -1 25 -2 25 -23 8 -15 -14
-18 -14 -8 -2 13 18 6 53 -9 43 -5 -3 -6 -10 -3 -16 4 -7 2 -8 -5 -4 -9 6 -9
11 0 22 8 10 7 17 -5 30 -13 13 -14 19 -5 30 10 12 9 13 -5 8 -14 -5 -15 -3
-7 19 7 17 6 28 -2 37 -9 10 -9 11 1 6 8 -5 12 1 12 18 0 14 -4 26 -9 26 -5 0
-8 8 -7 18 2 9 -5 24 -15 33 -10 9 -15 20 -11 25 4 4 -1 2 -10 -5 -15 -11 -17
-10 -13 9 4 19 2 20 -12 8 -13 -10 -17 -11 -21 0 -3 10 -7 10 -20 0 -10 -8
-13 -8 -9 -1 5 7 0 9 -13 6 -11 -3 -18 -9 -15 -13 3 -5 0 -12 -6 -16 -8 -4 -9
-3 -5 4 5 8 -4 11 -26 10 -41 -1 -80 11 -73 22 3 5 0 12 -6 16 -8 4 -9 3 -5
-4 4 -7 1 -12 -8 -12 -9 0 -16 5 -16 11 0 5 -4 7 -10 4 -5 -3 -10 -1 -10 5 0
6 -5 8 -10 5 -6 -4 -8 -10 -6 -14 3 -4 -2 -8 -10 -8 -10 0 -11 4 -4 11 13 13
13 29 0 21 -5 -3 -10 0 -10 7 0 9 -2 10 -8 1 -5 -9 -11 -9 -23 0 -9 7 -16 15
-15 19 1 3 -3 10 -7 15 -5 4 -8 4 -7 -2 6 -29 -1 -38 -15 -19 -8 10 -15 15
-15 10 0 -5 -6 -4 -12 2 -7 5 -36 9 -65 8 -28 0 -49 2 -47 6 2 4 0 9 -6 13 -5
3 -10 1 -10 -6 0 -8 -4 -8 -13 -1 -8 7 -18 7 -27 2 -9 -5 -19 -5 -26 1 -7 6
-21 6 -37 0 -17 -7 -27 -7 -29 0 -2 6 -7 7 -11 3z m260 -46 c-3 -8 -6 -5 -6 6
-1 11 2 17 5 13 3 -3 4 -12 1 -19z m-707 -178 c0 -5 -2 -10 -4 -10 -3 0 -8 5
-11 10 -3 6 -1 10 4 10 6 0 11 -4 11 -10z m-64 -45 c-1 -8 -5 -17 -8 -21 -5
-4 -4 16 1 34 3 9 9 -1 7 -13z m1362 -370 c-3 -3 -9 2 -12 12 -6 14 -5 15 5 6
7 -7 10 -15 7 -18z m-3 -25 c3 -5 1 -10 -4 -10 -6 0 -11 5 -11 10 0 6 2 10 4
10 3 0 8 -4 11 -10z m20 -68 c-3 -3 -11 0 -18 7 -9 10 -8 11 6 5 10 -3 15 -9
12 -12z m-60 -371 c3 -5 2 -12 -3 -15 -5 -3 -9 1 -9 9 0 17 3 19 12 6z m-1362
-196 c-7 -21 -12 -19 -10 4 0 11 5 18 9 15 4 -3 5 -11 1 -19z m47 -185 c0 -5
-2 -10 -4 -10 -3 0 -8 5 -11 10 -3 6 -1 10 4 10 6 0 11 -4 11 -10z m40 -26 c0
-8 -5 -12 -10 -9 -6 4 -8 11 -5 16 9 14 15 11 15 -7z m1816 -476 c3 -4 -1 -5
-10 -4 -8 1 -18 5 -22 8 -3 4 1 5 10 4 8 -1 18 -5 22 -8z m18 -44 c3 -8 2 -12
-4 -9 -6 3 -10 10 -10 16 0 14 7 11 14 -7z m41 6 c3 -5 1 -10 -4 -10 -6 0 -11
5 -11 10 0 6 2 10 4 10 3 0 8 -4 11 -10z m-80 -140 c-3 -5 -12 -10 -18 -10 -7
0 -6 4 3 10 19 12 23 12 15 0z"/>
<path d="M1893 2431 c0 -11 5 -18 9 -15 4 3 5 11 1 19 -7 21 -12 19 -10 -4z"/>
<path d="M1930 2361 c0 -6 4 -13 10 -16 6 -3 7 1 4 9 -7 18 -14 21 -14 7z"/>
<path d="M1880 2340 c18 -12 30 -13 30 -2 0 4 -10 9 -22 9 -18 2 -20 0 -8 -7z"/>
<path d="M1930 2320 c0 -5 5 -10 11 -10 5 0 7 5 4 10 -3 6 -8 10 -11 10 -2 0
-4 -4 -4 -10z"/>
<path d="M1940 2246 c0 -2 8 -10 18 -17 15 -13 16 -12 3 4 -13 16 -21 21 -21
13z"/>
<path d="M2035 2020 c3 -5 8 -10 11 -10 2 0 4 5 4 10 0 6 -5 10 -11 10 -5 0
-7 -4 -4 -10z"/>
<path d="M410 1979 c0 -5 5 -7 10 -4 6 3 10 8 10 11 0 2 -4 4 -10 4 -5 0 -10
-5 -10 -11z"/>
<path d="M2036 1975 c-3 -9 -11 -13 -17 -9 -8 5 -9 3 -4 -5 6 -10 11 -9 23 3
9 8 13 18 10 21 -3 3 -8 -1 -12 -10z"/>
<path d="M2035 1899 c-3 -4 2 -6 10 -5 21 3 28 13 10 13 -9 0 -18 -4 -20 -8z"/>
<path d="M2017 1879 c7 -7 15 -10 18 -7 3 3 -2 9 -12 12 -14 6 -15 5 -6 -5z"/>
<path d="M2040 1780 c-12 -7 -10 -9 7 -7 12 0 19 5 17 9 -6 10 -6 10 -24 -2z"/>
<path d="M2030 1642 c0 -5 7 -9 15 -9 8 0 12 4 9 9 -3 4 -9 8 -15 8 -5 0 -9
-4 -9 -8z"/>
<path d="M2026 1578 c3 -4 9 -8 15 -8 5 0 9 4 9 8 0 5 -7 9 -15 9 -8 0 -12 -4
-9 -9z"/>
<path d="M1980 1560 c-12 -7 -10 -9 8 -7 12 0 22 5 22 9 0 11 -12 10 -30 -2z"/>
<path d="M1986 1523 c-6 -14 -5 -15 5 -6 7 7 10 15 7 18 -3 3 -9 -2 -12 -12z"/>
<path d="M2033 1455 c0 -8 4 -12 9 -9 5 3 6 10 3 15 -9 13 -12 11 -12 -6z"/>
<path d="M1934 1421 c0 -11 4 -17 8 -15 4 3 8 12 8 20 0 8 -4 14 -8 14 -4 0
-8 -9 -8 -19z"/>
<path d="M2000 1420 c-9 -6 -10 -10 -3 -10 6 0 15 5 18 10 8 12 4 12 -15 0z"/>
<path d="M500 1380 c-9 -6 -10 -10 -3 -10 6 0 15 5 18 10 8 12 4 12 -15 0z"/>
<path d="M2130 1159 c0 -5 5 -7 10 -4 6 3 10 8 10 11 0 2 -4 4 -10 4 -5 0 -10
-5 -10 -11z"/>
<path d="M1724 1142 c-1 -9 -4 -26 -8 -37 -4 -11 0 -7 9 9 10 16 13 32 8 37
-5 5 -9 1 -9 -9z"/>
<path d="M1760 1130 c-9 -6 -10 -10 -3 -10 6 0 15 5 18 10 8 12 4 12 -15 0z"/>
<path d="M819 1113 c-13 -17 -13 -17 6 -3 11 8 22 16 24 17 2 2 0 3 -6 3 -6 0
-17 -8 -24 -17z"/>
<path d="M1590 1121 c0 -10 19 -25 25 -20 1 2 -3 10 -11 17 -8 7 -14 8 -14 3z"/>
<path d="M835 1100 c-3 -5 -2 -10 4 -10 5 0 13 5 16 10 3 6 2 10 -4 10 -5 0
-13 -4 -16 -10z"/>
<path d="M1659 1108 c-6 -21 -5 -37 2 -32 5 3 6 10 3 16 -5 8 -1 9 10 5 10 -4
15 -3 11 3 -5 9 -24 14 -26 8z"/>
<path d="M1748 1103 c6 -3 10 -9 6 -14 -3 -5 -1 -9 4 -9 21 0 19 26 -2 27 -11
0 -15 -1 -8 -4z"/>
<path d="M1786 1083 c-6 -14 -5 -15 5 -6 7 7 10 15 7 18 -3 3 -9 -2 -12 -12z"/>
<path d="M1834 1089 c-3 -6 1 -17 10 -25 9 -8 11 -9 6 -2 -14 16 -13 31 2 22
7 -4 8 -3 4 4 -9 15 -13 15 -22 1z"/>
<path d="M735 1080 c-3 -5 -1 -10 4 -10 6 0 11 5 11 10 0 6 -2 10 -4 10 -3 0
-8 -4 -11 -10z"/>
<path d="M790 1076 c7 -7 13 -7 20 0 6 6 3 10 -10 10 -13 0 -16 -4 -10 -10z"/>
<path d="M1596 1082 c-3 -5 1 -9 9 -9 8 0 12 4 9 9 -3 4 -7 8 -9 8 -2 0 -6 -4
-9 -8z"/>
<path d="M862 1064 c10 -10 20 -16 22 -13 3 3 -5 11 -17 18 -21 13 -21 12 -5
-5z"/>
<path d="M950 1070 c-13 -8 -12 -10 3 -10 9 0 17 5 17 10 0 12 -1 12 -20 0z"/>
<path d="M915 1051 c-3 -5 -2 -12 3 -15 5 -3 9 1 9 9 0 17 -3 19 -12 6z"/>
<path d="M1420 1045 c-7 -8 -9 -15 -6 -15 4 0 14 7 22 15 9 8 11 15 6 15 -5 0
-15 -7 -22 -15z"/>
<path d="M1471 1051 c-10 -7 -7 -9 12 -8 14 1 23 5 20 10 -6 9 -15 9 -32 -2z"/>
<path d="M1071 1024 c0 -11 3 -14 6 -6 3 7 2 16 -1 19 -3 4 -6 -2 -5 -13z"/>
<path d="M1143 1033 c4 -3 1 -13 -6 -22 -11 -14 -10 -14 5 -2 16 12 16 31 1
31 -4 0 -3 -3 0 -7z"/>
<path d="M1110 1019 c0 -5 5 -7 10 -4 6 3 10 8 10 11 0 2 -4 4 -10 4 -5 0 -10
-5 -10 -11z"/>
<path d="M1476 1018 c3 -5 10 -6 15 -3 13 9 11 12 -6 12 -8 0 -12 -4 -9 -9z"/>
<path d="M1896 1018 c3 -4 11 -5 19 -1 21 7 19 12 -4 10 -11 0 -18 -5 -15 -9z"/>
<path d="M1916 1002 c-3 -5 1 -9 9 -9 8 0 12 4 9 9 -3 4 -7 8 -9 8 -2 0 -6 -4
-9 -8z"/>
<path d="M1119 973 c-13 -16 -12 -17 4 -4 9 7 17 15 17 17 0 8 -8 3 -21 -13z"/>
<path d="M1156 967 c3 -10 9 -15 12 -12 3 3 0 11 -7 18 -10 9 -11 8 -5 -6z"/>
<path d="M1210 966 c0 -2 7 -7 16 -10 8 -3 12 -2 9 4 -6 10 -25 14 -25 6z"/>
<path d="M2096 842 c-3 -5 1 -9 9 -9 8 0 12 4 9 9 -3 4 -7 8 -9 8 -2 0 -6 -4
-9 -8z"/>
<path d="M2210 746 c0 -2 8 -10 18 -17 15 -13 16 -12 3 4 -13 16 -21 21 -21
13z"/>
<path d="M2315 551 c-3 -5 -2 -12 3 -15 5 -3 9 1 9 9 0 17 -3 19 -12 6z"/>
</g>
</svg>
